PathFileType	3	(X/Y/Z)	F:\ViconData\AntennenMessung\Messung1\Session1\ID20.trc
DataRate	CameraRate	NumFrames	NumMarkers	Units	OrigDataRate	OrigDataStartFrame	OrigNumFrames
120.0	120.0	4	70	mm	120.0	389	1036	
Frame#	Time	Ashort			Along			Atop			A4			Bshort			Blong			Btop			B4			Cshort			Clong			Ctop			C4			Dshort			Dlong			Dtop			D4			Eshort			Elong			Etop			E4			Fshort			Flong			Ftop			F4			Gshort			Glong			Gtop			G4			Hshort			Hlong			Htop			H4			I1			I2			I3			I4			I5			WandAshort			WandAlong			WandAtop			WandA4			WandA15			WandBshort			WandB4			WandB5			WandBtop			WandBlong			WandCshort			WandClong			WandCtop			WandC4			WandC5			Acenter			Aantenna			Bcenter			Bantenna			Ccenter			Cantenna			Dcenter			Dantenna			Ecenter			Eantenna			Fcenter			Fantenna			Gcenter			Gantenna			Hcenter			Hantenna			Icenter			Iantenna			
		X1	Y1	Z1	X2	Y2	Z2	X3	Y3	Z3	X4	Y4	Z4	X5	Y5	Z5	X6	Y6	Z6	X7	Y7	Z7	X8	Y8	Z8	X9	Y9	Z9	X10	Y10	Z10	X11	Y11	Z11	X12	Y12	Z12	X13	Y13	Z13	X14	Y14	Z14	X15	Y15	Z15	X16	Y16	Z16	X17	Y17	Z17	X18	Y18	Z18	X19	Y19	Z19	X20	Y20	Z20	X21	Y21	Z21	X22	Y22	Z22	X23	Y23	Z23	X24	Y24	Z24	X25	Y25	Z25	X26	Y26	Z26	X27	Y27	Z27	X28	Y28	Z28	X29	Y29	Z29	X30	Y30	Z30	X31	Y31	Z31	X32	Y32	Z32	X33	Y33	Z33	X34	Y34	Z34	X35	Y35	Z35	X36	Y36	Z36	X37	Y37	Z37	X38	Y38	Z38	X39	Y39	Z39	X40	Y40	Z40	X41	Y41	Z41	X42	Y42	Z42	X43	Y43	Z43	X44	Y44	Z44	X45	Y45	Z45	X46	Y46	Z46	X47	Y47	Z47	X48	Y48	Z48	X49	Y49	Z49	X50	Y50	Z50	X51	Y51	Z51	X52	Y52	Z52	X53	Y53	Z53	X54	Y54	Z54	X55	Y55	Z55	X56	Y56	Z56	X57	Y57	Z57	X58	Y58	Z58	X59	Y59	Z59	X60	Y60	Z60	X61	Y61	Z61	X62	Y62	Z62	X63	Y63	Z63	X64	Y64	Z64	X65	Y65	Z65	X66	Y66	Z66	X67	Y67	Z67	X68	Y68	Z68	X69	Y69	Z69	X70	Y70	Z70	
389	3.2333333	-1038.2454	214.5524	-1644.2238	-1109.3651	204.19794	-1599.4033	-1063.8557	172.60733	-1625.491	-1054.2269	262.28003	-1635.0544	-1352.9684	234.6375	1003.6594	-1281.3466	227.11981	1052.4031	-1322.793	193.85973	1020.9709	-1284.7618	287.87225	1052.8353	813.88763	187.74152	1209.6405	892.87445	179.12773	1178.6521	844.48871	145.32895	1198.5938	860.93567	292.48892	1168.4873	1115.6675	209.50409	-1401.6198	1056.0804	193.98929	-1460.3969	1095.1193	162.53186	-1423.9875	1069.8276	238.56042	-1425.7985	-1204.5844	1685.9766	-1563.0493	-1129.1538	1688.2612	-1606.0161	-1173.1572	1724.2666	-1581.918	-1134.0792	1580.9485	-1603.8521	-1240.5192	1698.7283	1118.3955	-1309.1558	1698.4907	1071.907	-1270.4131	1736.2866	1096.9604	-1245.4286	1592.6416	1110.7268	988.90765	1664.2444	1162.272	955.78052	1702.2893	1181.0603	922.8855	1662.1095	1215.2903	939.78412	1659.4056	1159.9052	998.92816	1668.5133	-1579.5469	1058.6637	1669.9878	-1518.6807	1024.9058	1708.0535	-1551.1791	1059.2043	1672.1611	-1585.5033	-113.44076	159.96097	-224.04938	-29.206881	168.68375	-221.11464	-72.214317	127.01213	-224.69965	-75.77877	164.97658	-254.81352	-78.466919	163.25356	-175.45168																																														-1068.9305	210.08487	-1624.8855	-1074.1632	248.72722	-1624.2612	-1321.6039	231.34535	1025.0051	-1320.3744	270.1022	1029.176	847.82123	184.04094	1196.3274	851.16058	222.83131	1194.0568	1088.7944	202.50711	-1428.1274	1082.7314	240.82799	-1432.0961	-1171.8881	1686.9668	-1581.6737	-1170.5621	1647.9902	-1581.4183	-1270.875	1698.6232	1097.8351	-1271.3533	1659.6366	1098.7405	953.44611	1704.9702	1182.3843	972.64526	1731.8967	1161.7117	1026.3256	1669.1895	-1551.6309	1027.7493	1630.218	-1552.0841	-76.09478	163.82829	-222.74821	-80.177109	202.55969	-220.69528
390	3.2416667	-1038.2589	214.54396	-1644.2112	-1109.3544	204.13718	-1599.3458	-1063.9115	172.5715	-1625.4839	-1054.2214	262.28464	-1635.0209	-1352.9651	234.83009	1003.6876	-1281.3765	227.08885	1052.4741	-1322.7479	193.85579	1020.9526	-1284.7546	287.81439	1052.8287	813.89221	187.74614	1209.6606	892.44122	178.47957	1179.1807	844.67267	145.17642	1198.4894	860.91162	292.40338	1168.4736	1115.6722	209.48799	-1401.6305	1056.0861	193.93285	-1460.3704	1095.1005	162.52879	-1423.9956	1069.8152	238.65132	-1425.9209	-1204.5138	1685.9126	-1563.1709	-1129.1479	1688.297	-1606.0364	-1173.1786	1724.2649	-1581.9255	-1134.0782	1580.9634	-1603.8829	-1239.6978	1699.1401	1119.5359	-1309.3054	1698.6674	1071.9614	-1270.4014	1736.2882	1096.9524	-1245.4763	1592.7485	1110.7715	988.8847	1664.2531	1162.2365	955.98016	1702.4014	1181.1403	923.1377	1661.9393	1215.2478	939.77454	1659.408	1159.9575	998.93091	1668.4978	-1579.5355	1058.6595	1669.9792	-1518.6843	1024.903	1708.0416	-1551.1661	1059.1825	1672.1571	-1585.5084	-113.4686	159.94595	-224.02872	-29.202274	168.69322	-221.12601	-72.189285	126.9882	-224.68912	-75.781029	164.96609	-254.7917	-78.50985	163.23566	-175.4357																																														-1068.9807	210.04698	-1624.824	-1074.2075	248.68913	-1624.1434	-1321.5219	231.42996	1025.1156	-1320.2578	270.17242	1029.4081	848.35992	183.6799	1196.2859	852.07172	222.43944	1194.0676	1088.7705	202.46521	-1428.1501	1082.697	240.78262	-1432.1362	-1171.8857	1686.9448	-1581.7286	-1170.5355	1647.9688	-1581.5229	-1270.973	1698.9277	1098.1603	-1271.5695	1659.9526	1099.4203	953.91339	1704.7975	1182.3276	973.21289	1731.674	1161.6835	1026.3303	1669.1772	-1551.6211	1027.7617	1630.2062	-1552.0773	-76.08046	163.82701	-222.7408	-80.171455	202.55772	-220.69246
391	3.25	-1038.2535	214.50981	-1644.2239	-1109.3583	204.16673	-1599.3881	-1064.0585	172.56064	-1625.3995	-1054.2338	262.3093	-1635.045	-1352.9739	234.7002	1003.7036	-1281.3671	227.32283	1052.3097	-1322.7551	193.94095	1020.9404	-1284.7515	287.84464	1052.8192	813.90125	187.81226	1209.5815	892.8598	179.08374	1178.7842	844.42615	145.39172	1198.3944	860.94128	292.46924	1168.4719	1115.6968	209.79663	-1401.8239	1056.0746	193.92043	-1460.3694	1095.1392	162.54031	-1424.0132	1069.8203	238.5992	-1425.8545	-1204.5305	1685.9298	-1563.1838	-1129.1515	1688.3207	-1606.0605	-1173.1769	1724.2662	-1581.9159	-1134.0707	1580.9738	-1603.8942	-1239.7158	1699.1726	1119.5546	-1309.3046	1698.6698	1071.9552	-1270.3748	1736.2273	1096.9358	-1245.4633	1592.7029	1110.7577	988.8407	1664.1886	1162.2343	955.73389	1702.3134	1181.0551	922.97552	1662.0128	1215.2465	939.76123	1659.401	1159.9211	998.93408	1668.4985	-1579.5487	1058.6492	1669.9756	-1518.6976	1024.9008	1708.0613	-1551.1698	1059.1754	1672.1517	-1585.5022	-113.49087	159.98438	-224.03523	-29.206518	168.69225	-221.1232	-72.195862	126.96277	-224.68156	-75.792633	164.96097	-254.83813	-78.486198	163.27946	-175.46732																																														-1069.1091	210.02148	-1624.7676	-1074.3193	248.66638	-1624.1157	-1321.6301	231.47096	1024.9794	-1320.4683	270.22986	1029.1506	847.89227	184.05467	1196.3234	851.36987	222.84372	1194.2456	1088.7058	202.60947	-1428.3273	1082.558	240.90054	-1432.4502	-1171.8972	1686.9647	-1581.746	-1170.5601	1647.988	-1581.5686	-1270.9591	1698.9467	1098.1837	-1271.5699	1659.9734	1099.4885	953.5495	1704.8286	1182.2969	972.75739	1731.7275	1161.5964	1026.3315	1669.1761	-1551.6299	1027.7655	1630.2053	-1552.0909	-76.073891	163.85013	-222.74246	-80.145996	202.58348	-220.70633
392	3.2583333	-1038.2172	214.50244	-1644.2144	-1109.3947	204.23035	-1599.3577	-1063.989	172.61691	-1625.418	-1054.2053	262.2991	-1635.0398	-1352.9264	234.68246	1003.6471	-1281.3398	227.11586	1052.4673	-1322.814	193.87241	1020.9183	-1284.7411	287.85272	1052.834	813.94531	187.74318	1209.5924	892.49072	178.4324	1179.167	844.35864	145.4984	1198.3175	860.89838	292.46317	1168.5128	1115.6604	209.52881	-1401.653	1056.1027	194.00044	-1460.407	1095.0795	162.53014	-1423.9987	1069.8059	238.55254	-1425.8363	-1204.5122	1685.9078	-1563.1765	-1129.1499	1688.3009	-1606.0513	-1173.1721	1724.271	-1581.92	-1134.0868	1580.9594	-1603.8533	-1240.5585	1698.7642	1118.4171	-1309.2996	1698.6841	1071.9619	-1270.4287	1736.3026	1096.9603	-1245.4642	1592.7048	1110.766	988.90558	1664.259	1162.2594	955.82867	1702.2952	1181.074	923.03687	1661.9625	1215.2178	939.79059	1659.415	1159.9082	998.93024	1668.4811	-1579.5527	1058.7739	1670.1537	-1518.679	1024.8987	1708.0494	-1551.165	1059.1708	1672.1504	-1585.5029	-113.4845	159.96245	-224.03772	-29.194508	168.65826	-221.11725	-72.204048	127.01802	-224.75607	-75.806122	164.95596	-254.80151	-78.529503	163.25958	-175.45488																																														-1069.0088	210.05867	-1624.8092	-1074.1907	248.70779	-1624.1808	-1321.6281	231.37427	1024.9916	-1320.4025	270.12708	1029.201	848.12488	183.69151	1196.3527	851.94714	222.4525	1194.3585	1088.7743	202.51884	-1428.1761	1082.7322	240.83943	-1432.1793	-1171.8839	1686.9437	-1581.7391	-1170.5389	1647.9674	-1581.5504	-1270.988	1698.7286	1097.8528	-1271.5684	1659.744	1098.7789	953.62378	1704.8304	1182.3281	972.83661	1731.7574	1161.6689	1026.4176	1669.2493	-1551.5922	1027.9431	1630.2816	-1552.0211	-76.070778	163.82225	-222.74139	-80.139748	202.55141	-220.62135
